<svg width="20" height="20" viewBox="0 0 20 20" fill="none" xmlns="http://www.w3.org/2000/svg">
<path d="M17 4.44444H16V3.33333C16 2.44928 15.6839 1.60143 15.1213 0.976311C14.5587 0.35119 13.7956 0 13 0H3C2.20435 0 1.44129 0.35119 0.87868 0.976311C0.316071 1.60143 0 2.44928 0 3.33333V16.6667C0 17.5507 0.316071 18.3986 0.87868 19.0237C1.44129 19.6488 2.20435 20 3 20H17C17.7956 20 18.5587 19.6488 19.1213 19.0237C19.6839 18.3986 20 17.5507 20 16.6667V7.77778C20 6.89372 19.6839 6.04588 19.1213 5.42076C18.5587 4.79563 17.7956 4.44444 17 4.44444ZM3 2.22222H13C13.2652 2.22222 13.5196 2.33929 13.7071 2.54766C13.8946 2.75603 14 3.03865 14 3.33333V4.44444H3C2.73478 4.44444 2.48043 4.32738 2.29289 4.11901C2.10536 3.91063 2 3.62802 2 3.33333C2 3.03865 2.10536 2.75603 2.29289 2.54766C2.48043 2.33929 2.73478 2.22222 3 2.22222ZM18 13.3333H17C16.7348 13.3333 16.4804 13.2163 16.2929 13.0079C16.1054 12.7995 16 12.5169 16 12.2222C16 11.9275 16.1054 11.6449 16.2929 11.4365C16.4804 11.2282 16.7348 11.1111 17 11.1111H18V13.3333ZM18 8.88889H17C16.2044 8.88889 15.4413 9.24008 14.8787 9.8652C14.3161 10.4903 14 11.3382 14 12.2222C14 13.1063 14.3161 13.9541 14.8787 14.5792C15.4413 15.2044 16.2044 15.5556 17 15.5556H18V16.6667C18 16.9614 17.8946 17.244 17.7071 17.4523C17.5196 17.6607 17.2652 17.7778 17 17.7778H3C2.73478 17.7778 2.48043 17.6607 2.29289 17.4523C2.10536 17.244 2 16.9614 2 16.6667V6.47778C2.32127 6.60335 2.65943 6.66723 3 6.66667H17C17.2652 6.66667 17.5196 6.78373 17.7071 6.9921C17.8946 7.20048 18 7.48309 18 7.77778V8.88889Z" fill="#243656"/>
</svg>
