<svg width="20" height="20" viewBox="0 0 20 20" fill="none" xmlns="http://www.w3.org/2000/svg">
<path d="M14.125 10.2588C14.792 9.71545 15.3269 9.04339 15.6936 8.28826C16.0602 7.53313 16.25 6.7126 16.25 5.88235C16.25 4.32226 15.5915 2.82606 14.4194 1.7229C13.2473 0.619746 11.6576 0 10 0C8.3424 0 6.75269 0.619746 5.58058 1.7229C4.40848 2.82606 3.75 4.32226 3.75 5.88235C3.74999 6.7126 3.93975 7.53313 4.30641 8.28826C4.67306 9.04339 5.20803 9.71545 5.875 10.2588C4.12517 11.0046 2.64058 12.2089 1.59873 13.7277C0.556869 15.2465 0.00183982 17.0157 0 18.8235C0 19.1355 0.131696 19.4348 0.366116 19.6554C0.600537 19.8761 0.918479 20 1.25 20C1.58152 20 1.89946 19.8761 2.13388 19.6554C2.3683 19.4348 2.5 19.1355 2.5 18.8235C2.5 16.9514 3.29018 15.156 4.6967 13.8322C6.10322 12.5084 8.01088 11.7647 10 11.7647C11.9891 11.7647 13.8968 12.5084 15.3033 13.8322C16.7098 15.156 17.5 16.9514 17.5 18.8235C17.5 19.1355 17.6317 19.4348 17.8661 19.6554C18.1005 19.8761 18.4185 20 18.75 20C19.0815 20 19.3995 19.8761 19.6339 19.6554C19.8683 19.4348 20 19.1355 20 18.8235C19.9982 17.0157 19.4431 15.2465 18.4013 13.7277C17.3594 12.2089 15.8748 11.0046 14.125 10.2588ZM10 9.41177C9.25832 9.41177 8.5333 9.20477 7.91661 8.81695C7.29993 8.42914 6.81928 7.87792 6.53545 7.233C6.25162 6.58809 6.17736 5.87844 6.32206 5.1938C6.46675 4.50916 6.8239 3.88028 7.34835 3.38668C7.8728 2.89309 8.54098 2.55694 9.26841 2.42076C9.99584 2.28457 10.7498 2.35447 11.4351 2.6216C12.1203 2.88873 12.706 3.34111 13.118 3.92152C13.5301 4.50193 13.75 5.1843 13.75 5.88235C13.75 6.81841 13.3549 7.71613 12.6517 8.37803C11.9484 9.03992 10.9946 9.41177 10 9.41177Z" fill="#243656"/>
</svg>
