<svg width="20" height="21" viewBox="0 0 20 21" fill="none" xmlns="http://www.w3.org/2000/svg">
<path d="M18.3659 10.6614C18.2027 10.4789 18.1127 10.2443 18.1127 10.0014C18.1127 9.75845 18.2027 9.52385 18.3659 9.34136L19.6688 7.90136C19.8123 7.74403 19.9015 7.54606 19.9234 7.33587C19.9454 7.12567 19.899 6.91405 19.7909 6.73136L17.7552 3.27136C17.6482 3.08888 17.4853 2.94424 17.2898 2.85805C17.0942 2.77186 16.8759 2.74852 16.6661 2.79136L14.7525 3.17136C14.509 3.22079 14.2555 3.18095 14.0398 3.05936C13.8242 2.93777 13.6613 2.74284 13.5819 2.51136L12.961 0.68136C12.8927 0.482739 12.7626 0.310225 12.5891 0.188202C12.4156 0.0661789 12.2074 0.000818796 11.994 0.00135996H7.92255C7.70058 -0.0100221 7.48093 0.0502863 7.29713 0.173074C7.11333 0.295862 6.9755 0.474379 6.90468 0.68136L6.33467 2.51136C6.25528 2.74284 6.09239 2.93777 5.87674 3.05936C5.6611 3.18095 5.40761 3.22079 5.16412 3.17136L3.19963 2.79136C3.00068 2.76374 2.79787 2.79458 2.61674 2.88C2.43561 2.96542 2.28426 3.10159 2.18176 3.27136L0.146014 6.73136C0.0352295 6.91201 -0.014583 7.12245 0.00369848 7.33258C0.0219799 7.54272 0.107419 7.7418 0.247801 7.90136L1.5405 9.34136C1.70368 9.52385 1.79368 9.75845 1.79368 10.0014C1.79368 10.2443 1.70368 10.4789 1.5405 10.6614L0.247801 12.1014C0.107419 12.2609 0.0219799 12.46 0.00369848 12.6701C-0.014583 12.8803 0.0352295 13.0907 0.146014 13.2714L2.18176 16.7314C2.28873 16.9138 2.45161 17.0585 2.64718 17.1447C2.84275 17.2309 3.06102 17.2542 3.27088 17.2114L5.18447 16.8314C5.42797 16.7819 5.68145 16.8218 5.8971 16.9434C6.11274 17.0649 6.27563 17.2599 6.35503 17.4914L6.97593 19.3214C7.04675 19.5283 7.18459 19.7069 7.36838 19.8296C7.55218 19.9524 7.77183 20.0127 7.9938 20.0014H12.0653C12.2787 20.0019 12.4868 19.9365 12.6604 19.8145C12.8339 19.6925 12.964 19.52 13.0323 19.3214L13.6532 17.4914C13.7326 17.2599 13.8954 17.0649 14.1111 16.9434C14.3267 16.8218 14.5802 16.7819 14.8237 16.8314L16.7373 17.2114C16.9472 17.2542 17.1654 17.2309 17.361 17.1447C17.5566 17.0585 17.7195 16.9138 17.8264 16.7314L19.8622 13.2714C19.9702 13.0887 20.0166 12.877 19.9947 12.6669C19.9727 12.4567 19.8836 12.2587 19.74 12.1014L18.3659 10.6614ZM16.8493 12.0014L17.6636 12.9014L16.3607 15.1214L15.1596 14.8814C14.4265 14.7341 13.6639 14.8565 13.0166 15.2252C12.3692 15.5938 11.8822 16.1832 11.648 16.8814L11.2612 18.0014H8.65541L8.28898 16.8614C8.05472 16.1632 7.5677 15.5738 6.92036 15.2052C6.27301 14.8365 5.51042 14.7141 4.77733 14.8614L3.57624 15.1014L2.25301 12.8914L3.0673 11.9914C3.56805 11.4413 3.84489 10.7293 3.84489 9.99136C3.84489 9.25343 3.56805 8.54138 3.0673 7.99136L2.25301 7.09136L3.55588 4.89136L4.75697 5.13136C5.49006 5.27858 6.25266 5.15624 6.9 4.78756C7.54734 4.41888 8.03436 3.82952 8.26862 3.13136L8.65541 2.00136H11.2612L11.648 3.14136C11.8822 3.83952 12.3692 4.42888 13.0166 4.79756C13.6639 5.16624 14.4265 5.28858 15.1596 5.14136L16.3607 4.90136L17.6636 7.12136L16.8493 8.02136C16.3541 8.57012 16.0808 9.27804 16.0808 10.0114C16.0808 10.7447 16.3541 11.4526 16.8493 12.0014ZM9.95829 6.00136C9.15302 6.00136 8.36584 6.23596 7.69629 6.67548C7.02674 7.11501 6.50489 7.73972 6.19673 8.47063C5.88857 9.20153 5.80794 10.0058 5.96504 10.7817C6.12214 11.5576 6.50991 12.2704 7.07931 12.8298C7.64872 13.3892 8.37419 13.7702 9.16398 13.9245C9.95377 14.0788 10.7724 13.9996 11.5164 13.6969C12.2603 13.3941 12.8962 12.8814 13.3436 12.2236C13.791 11.5658 14.0298 10.7925 14.0298 10.0014C14.0298 8.94049 13.6008 7.92308 12.8373 7.17293C12.0737 6.42279 11.0381 6.00136 9.95829 6.00136ZM9.95829 12.0014C9.55566 12.0014 9.16207 11.8841 8.82729 11.6643C8.49251 11.4445 8.23159 11.1322 8.07751 10.7667C7.92343 10.4013 7.88311 9.99914 7.96166 9.61118C8.04021 9.22322 8.2341 8.86685 8.5188 8.58715C8.8035 8.30744 9.16624 8.11696 9.56113 8.03979C9.95603 7.96262 10.3653 8.00223 10.7373 8.1536C11.1093 8.30498 11.4273 8.56132 11.6509 8.89022C11.8746 9.21912 11.994 9.6058 11.994 10.0014C11.994 10.5318 11.7795 11.0405 11.3978 11.4156C11.016 11.7906 10.4982 12.0014 9.95829 12.0014Z" fill="#243656"/>
</svg>
