<svg width="167" height="164" viewBox="0 0 167 164" fill="none" xmlns="http://www.w3.org/2000/svg">
<path fill-rule="evenodd" clip-rule="evenodd" d="M66.607 4.7652L73.8361 3.7747C92.4748 1.77988 113.422 5.1355 128.143 16.608C135.861 22.6232 141.388 29.8838 145.435 38.9192C149.441 47.864 151.462 55.9868 151.462 66.8623C151.462 74.7592 149.11 84.2288 146.306 90.3767C143.027 97.5682 139.09 102.828 133.945 106.615C131.277 108.58 128.133 110.419 124.623 111.576C117.91 113.789 119.31 113.253 113.596 111.472C98.1948 106.672 75.3439 103.958 61.7431 114.582C60.1163 115.853 60.1924 117.628 61.6498 118.831C65.1545 121.724 77.3726 120.986 82.3931 120.634C84.3108 120.5 86.734 120.106 88.6022 120.106C92.0618 120.106 95.6931 125.085 86.2475 130.841C83.1441 132.732 79.5081 133.758 75.2399 133.758C67.5642 133.758 60.4824 128.578 54.5941 124.649C52.5284 123.271 50.6759 122.012 48.7066 120.585C42.1548 115.839 35.0105 110.64 28.1452 106.34C26.5121 105.317 26.2101 105.125 23.9661 105.125C21.7868 105.125 19.7141 106.093 20.3546 108.555C20.7862 110.214 22.3244 112.157 23.1237 113.073C23.4197 113.412 23.6727 113.644 23.9502 113.961C25.4059 115.622 27.095 117.026 28.7203 118.504C29.334 119.061 30.0452 119.641 30.7449 120.211C32.5453 121.676 34.7413 123.929 36.5018 125.487C37.1796 126.086 37.767 126.697 38.4346 127.283C46.8699 134.684 52.8685 141.147 63.6895 146.326C69.9754 149.334 79.4362 151.828 87.6698 151.828H90.4763C104.23 151.828 121.375 144.905 132.465 137.91C137.254 134.889 144.074 129.633 147.828 125.309C152.878 119.493 155.317 116.636 159.202 108.702C163.183 100.571 166.078 88.7607 166.078 78.3606V74.01C166.078 64.001 163.868 52.0751 160.562 43.6883C158.813 39.253 156.707 35.3241 154.446 31.7741C153.858 30.8495 153.222 29.9049 152.621 29.0968C147.718 22.5091 143.449 18.2286 136.934 13.4053C118.197 -0.464063 95.1537 -2.85107 72.8531 2.94915C71.7514 3.2358 70.7306 3.50629 69.6692 3.81066C69.0949 3.97535 66.7454 4.75295 66.607 4.76546V4.7652Z" fill="#01A0E4"/>
<path fill-rule="evenodd" clip-rule="evenodd" d="M103.058 157.29C102.68 156.98 102.137 157.227 101.572 157.361C98.4462 158.104 94.1637 158.729 91.0072 159.079C63.6884 162.107 37.8389 153.983 24.0029 129.146C16.7598 116.144 13.0385 100.565 17.104 83.3073C20.6733 68.1558 28.9335 57.1881 42.8073 52.8993C45.7611 51.9862 45.7259 52.5277 48.6172 53.2355C65.0797 57.2658 86.7647 58.4512 100.418 47.754C104.852 44.28 102.2 41.8865 97.2066 41.3044C92.9061 40.803 88.3403 41.2887 84.1033 41.7474C82.1137 41.9626 80.0274 42.2873 78.0159 42.6063C76.0732 42.9143 73.8692 43.6833 72.2136 42.7011C70.7627 41.8404 69.8389 39.9227 70.8802 37.8174C72.942 33.6495 78.3203 30.2241 83.1524 29.1202C91.9578 27.1087 98.699 31.0676 104.847 34.4727C110.919 37.8359 116.842 41.4829 122.465 44.974C127.31 47.982 130.896 49.9677 135.749 52.6492C137.492 53.612 139.4 53.9675 141.584 53.1823C146.439 51.4366 140.748 46.1355 139.5 44.8674C137.694 43.0329 133.92 40.2414 131.693 38.6818C130.359 37.7473 129.1 36.6096 127.81 35.5813C119.068 28.6181 109.11 20.0329 98.5419 15.7384C83.5274 9.63692 66.6258 10.1357 51.719 16.3179C32.8028 24.1633 16.0007 35.8919 6.66451 55.3179C-0.102498 69.3978 -1.55998 86.2809 1.58378 103.207C3.76961 114.976 7.07807 124.083 13.4795 133.445C17.5173 139.351 21.4697 143.447 26.9288 148.111C34.482 154.564 45.0476 159.619 55.0762 161.926C63.4727 163.858 72.0672 164.088 80.8235 162.999C87.1277 162.215 97.3356 159.793 103.058 157.291L103.058 157.29Z" fill="#92B13A"/>
<path fill-rule="evenodd" clip-rule="evenodd" d="M50.3983 120.217C49.53 116.815 44.0337 108.097 41.8718 105.053C40.1389 102.613 38.5258 100.576 36.7499 98.3606C35.719 97.0743 30.1664 93.3033 28.9895 94.5641C27.1995 96.4818 36.0148 108.898 36.7663 109.993C37.3672 110.868 45.3353 116.614 46.8163 117.665C47.7145 118.303 49.4628 119.796 50.3983 120.217V120.217Z" fill="#01A0E4"/>
<path fill-rule="evenodd" clip-rule="evenodd" d="M112.447 40.3271C114.886 45.9642 123.097 56.7326 127.523 61.0347C128.668 62.1474 129.451 62.5615 131.051 63.4006C131.814 63.8009 134.78 65.3746 135.632 64.4768C137.475 62.5339 127.592 50.5194 126.911 49.6875C126.147 48.7531 121.111 45.7206 119.762 44.8776C118.64 44.1758 113.111 40.5406 112.447 40.3274L112.447 40.3271Z" fill="#92B13A"/>
<path fill-rule="evenodd" clip-rule="evenodd" d="M63.7625 76.933C70.8344 75.3695 72.6971 86.2054 66.1672 87.6462C59.0414 89.2183 57.028 78.4221 63.7625 76.933ZM63.413 73.9316C59.2139 74.761 55.6675 78.6243 56.6186 83.9174C57.3689 88.0915 61.4278 91.5879 66.562 90.6682C70.7254 89.9224 74.1102 85.8729 73.2628 80.7924C72.5579 76.5667 68.3856 72.9494 63.413 73.9316Z" fill="black"/>
<path fill-rule="evenodd" clip-rule="evenodd" d="M130.785 83.4033C132.426 83.0184 134.487 83.5781 134.772 85.0492C135.154 87.0231 133.024 87.6944 131.327 87.4318L130.785 87.3147V83.403V83.4033ZM132.094 80.4352L130.777 80.4599L130.818 77.2268C131.585 77.1197 132.292 77.1126 132.818 77.4485C134.256 78.2121 133.894 80.1037 132.094 80.4349V80.4352ZM127.689 90.4265C130.852 90.4265 134.9 91.0326 136.829 88.6805C139 86.035 137.743 82.6108 135.197 81.5239C135.362 81.2104 138.531 78.2777 135.369 75.4112C133.615 73.8216 130.379 74.1693 127.736 74.1693L127.689 90.4267L127.689 90.4265Z" fill="black"/>
<path fill-rule="evenodd" clip-rule="evenodd" d="M33.3362 84.0612C33.4344 83.3081 35.0316 79.3151 35.4639 78.752C35.8011 79.4126 37.4254 83.416 37.4897 84.0977L33.3359 84.0612H33.3362ZM27.6097 90.397L30.7748 90.4345C31.2058 89.5052 31.8902 87.2068 32.3563 87.113L38.7072 87.1151C39.1729 87.8494 39.6041 89.4177 40.0396 90.397L43.2047 90.4345L36.992 74.2042C32.9862 74.1492 34.1669 73.3731 32.3345 78.0239L27.6094 90.397H27.6097Z" fill="black"/>
<path fill-rule="evenodd" clip-rule="evenodd" d="M118.572 87.6824C118.294 87.1234 117.018 85.9127 116.57 85.5393C115.894 85.7991 113.8 88.7276 109.899 87.5234C104.771 85.9406 104.886 78.6373 109.913 77.0219C111.086 76.6448 112.747 76.7733 113.833 77.2215C115.482 77.9024 115.897 78.7087 116.57 79.0211C116.949 78.8059 118.441 77.4016 118.616 76.9612C117.064 74.5492 112.333 72.9692 108.613 74.2792C100.808 77.0282 101.341 88.0021 108.479 90.3334C111.726 91.394 116.574 90.5048 118.572 87.6819L118.572 87.6824Z" fill="black"/>
<path fill-rule="evenodd" clip-rule="evenodd" d="M92.0472 90.3939L100.931 90.427L100.953 87.4687L95.2175 87.3992L95.149 83.2058L100.94 83.1315L100.949 80.1735L95.1769 80.1198V77.1929L100.915 77.1869L100.955 74.2435L92.0727 74.17L92.0472 90.3939Z" fill="black"/>
<path fill-rule="evenodd" clip-rule="evenodd" d="M80.9192 90.4358L83.774 90.4316C84.2764 89.4672 89.5455 74.9038 89.5914 74.1689H86.5531C85.4967 76.6393 83.1238 84.0914 82.3655 85.4734L78.2169 74.1781L75.0893 74.1705L80.9192 90.436V90.4358Z" fill="black"/>
<path fill-rule="evenodd" clip-rule="evenodd" d="M46.8063 85.7459L44.2692 87.1792C44.6974 89.2913 47.4693 91.1993 50.4765 90.7269C53.0842 90.3172 55.0884 88.0311 54.3074 85.0212C53.756 82.8961 51.1084 81.1361 49.6588 79.8589C49.2335 79.4842 46.9747 77.9381 48.5552 77.005C50.0014 76.151 51.1949 77.7164 51.7784 78.3603C52.3751 78.1521 53.5402 76.9471 54.1096 76.5101C53.4449 74.8819 50.2477 72.9828 47.5553 74.1234C45.3567 75.055 43.9732 77.6968 45.8005 80.2986C47.1563 82.229 49.1746 83.2284 50.767 84.9673C51.8772 86.1798 51.228 87.6324 49.7562 87.7538C48.0595 87.8937 47.5712 86.5475 46.8061 85.7459H46.8063Z" fill="black"/>
<path fill-rule="evenodd" clip-rule="evenodd" d="M45.063 102.098C44.6682 104.338 48.4288 112.204 49.4581 114.381C50.4233 116.423 52.5776 120.928 53.9098 122.535C54.2056 122.892 55.7806 124.696 56.5016 123.803C57.2169 122.918 55.9369 117.984 55.5507 116.856C54.3848 113.45 50.0173 104.1 46.6169 102.465C46.0376 102.186 45.6379 102.062 45.0633 102.098H45.063Z" fill="#01A0E4"/>
<path fill-rule="evenodd" clip-rule="evenodd" d="M119.141 57.9733C119.097 54.6599 112.922 44.4823 110.785 40.9606C110.159 39.9284 109.807 39.2608 109.046 38.4921C108.513 37.9537 107.465 36.8305 106.389 36.9632C105.386 38.3005 106.869 42.1609 107.437 43.6833C108.641 46.9081 114.958 58.5823 119.141 57.9735V57.9733Z" fill="#92B13A"/>
<path fill-rule="evenodd" clip-rule="evenodd" d="M121.155 90.3735L124.248 90.4259L124.276 74.2286L121.17 74.183L121.155 90.3735Z" fill="black"/>
</svg>
