<svg width="18" height="21" viewBox="0 0 18 21" fill="none" xmlns="http://www.w3.org/2000/svg">
<path d="M17.0001 6.52393L11.0001 1.26393C10.4501 0.771977 9.73803 0.5 9.00009 0.5C8.26216 0.5 7.55012 0.771977 7.00009 1.26393L1.00009 6.52393C0.682463 6.80801 0.428995 7.15649 0.256567 7.54618C0.0841385 7.93586 -0.00329256 8.35781 9.47941e-05 8.78393V17.5239C9.47941e-05 18.3196 0.316165 19.0826 0.878775 19.6453C1.44138 20.2079 2.20445 20.5239 3.00009 20.5239H15.0001C15.7957 20.5239 16.5588 20.2079 17.1214 19.6453C17.684 19.0826 18.0001 18.3196 18.0001 17.5239V8.77393C18.0021 8.34949 17.9139 7.92947 17.7416 7.54161C17.5692 7.15375 17.3165 6.80689 17.0001 6.52393ZM11.0001 18.5239H7.00009V13.5239C7.00009 13.2587 7.10545 13.0044 7.29299 12.8168C7.48052 12.6293 7.73488 12.5239 8.00009 12.5239H10.0001C10.2653 12.5239 10.5197 12.6293 10.7072 12.8168C10.8947 13.0044 11.0001 13.2587 11.0001 13.5239V18.5239ZM16.0001 17.5239C16.0001 17.7891 15.8947 18.0435 15.7072 18.231C15.5197 18.4186 15.2653 18.5239 15.0001 18.5239H13.0001V13.5239C13.0001 12.7283 12.684 11.9652 12.1214 11.4026C11.5588 10.84 10.7957 10.5239 10.0001 10.5239H8.00009C7.20444 10.5239 6.44138 10.84 5.87877 11.4026C5.31616 11.9652 5.00009 12.7283 5.00009 13.5239V18.5239H3.00009C2.73488 18.5239 2.48052 18.4186 2.29299 18.231C2.10545 18.0435 2.00009 17.7891 2.00009 17.5239V8.77393C2.00027 8.63195 2.03069 8.49163 2.08931 8.36231C2.14794 8.23299 2.23343 8.11764 2.3401 8.02393L8.34009 2.77393C8.52258 2.61361 8.75719 2.5252 9.00009 2.5252C9.243 2.5252 9.47761 2.61361 9.66009 2.77393L15.6601 8.02393C15.7668 8.11764 15.8523 8.23299 15.9109 8.36231C15.9695 8.49163 15.9999 8.63195 16.0001 8.77393V17.5239Z" fill="#FF5F68"/>
</svg>
