<svg width="20" height="20" viewBox="0 0 20 20" fill="none" xmlns="http://www.w3.org/2000/svg">
<g clip-path="url(#clip0)">
<path fill-rule="evenodd" clip-rule="evenodd" d="M2.44569 2H17.5585C18.9075 2 20.0041 3.10077 20 4.44982V14.7747C20 16.1237 18.9034 17.2204 17.5543 17.2204H2.44569C1.09663 17.2204 0 16.1237 0 14.7747V4.44569C0 3.09663 1.09663 2 2.44569 2ZM17.5046 5.09537L12.6133 9.48188L17.5253 14.1456C17.7488 14.3567 17.7571 14.7126 17.546 14.936C17.4343 15.0519 17.2894 15.1098 17.1405 15.1098C17.0039 15.1098 16.8632 15.0602 16.7556 14.9567L11.7815 10.2309L10.3869 11.4806C10.2834 11.5758 10.1469 11.6255 10.0145 11.6255C9.88204 11.6255 9.74961 11.58 9.64202 11.4848L8.28468 10.2723L3.28158 14.9526C3.17399 15.0519 3.03743 15.1016 2.90086 15.1016C2.75189 15.1016 2.60291 15.0395 2.49118 14.9236C2.28013 14.696 2.29255 14.3443 2.51601 14.1332L7.44463 9.51912L2.49532 5.09537C2.26358 4.88845 2.24289 4.53671 2.4498 4.30497C2.65671 4.07323 3.00846 4.05253 3.2402 4.25945L8.59505 9.0515C8.62816 9.07633 8.65712 9.10116 8.68609 9.13013C8.68609 9.13427 8.69023 9.1384 8.69437 9.14254L10.0103 10.3178L16.7556 4.26358C16.9874 4.05667 17.3391 4.07736 17.546 4.30497C17.7529 4.53671 17.7322 4.88845 17.5046 5.09537Z" fill="white"/>
</g>
<defs>
<clipPath id="clip0">
<rect width="20" height="20" fill="white"/>
</clipPath>
</defs>
</svg>
