<svg width="24" height="24" viewBox="0 0 24 24" fill="none" xmlns="http://www.w3.org/2000/svg">
<rect width="24" height="24" rx="12" fill="#243656"/>
<path d="M13 8C13 7.44772 12.5523 7 12 7C11.4477 7 11 7.44772 11 8L13 8ZM11 16C11 16.5523 11.4477 17 12 17C12.5523 17 13 16.5523 13 16L11 16ZM11 8L11 16L13 16L13 8L11 8Z" fill="#A3DA6B"/>
<path d="M8 11C7.44772 11 7 11.4477 7 12C7 12.5523 7.44772 13 8 13V11ZM16 13C16.5523 13 17 12.5523 17 12C17 11.4477 16.5523 11 16 11V13ZM8 13H16V11H8V13Z" fill="#A3DA6B"/>
</svg>
