<svg width="17" height="17" viewBox="0 0 17 17" fill="none" xmlns="http://www.w3.org/2000/svg">
<path d="M15.8284 1.64286H13.5206V1.07143C13.5206 0.919876 13.4598 0.774531 13.3516 0.667368C13.2434 0.560204 13.0967 0.5 12.9437 0.5C12.7907 0.5 12.6439 0.560204 12.5357 0.667368C12.4275 0.774531 12.3667 0.919876 12.3667 1.07143V1.64286H4.28956V1.07143C4.28956 0.919876 4.22878 0.774531 4.12058 0.667368C4.01238 0.560204 3.86564 0.5 3.71262 0.5C3.55961 0.5 3.41286 0.560204 3.30466 0.667368C3.19647 0.774531 3.13568 0.919876 3.13568 1.07143V1.64286H0.827917C0.674903 1.64286 0.528156 1.70306 0.419959 1.81022C0.311761 1.91739 0.250977 2.06273 0.250977 2.21429V5.64286C0.250977 5.79441 0.311761 5.93975 0.419959 6.04692C0.528156 6.15408 0.674903 6.21429 0.827917 6.21429H1.40486V15.9286C1.40486 16.0801 1.46564 16.2255 1.57384 16.3326C1.68204 16.4398 1.82878 16.5 1.9818 16.5H14.6745C14.8275 16.5 14.9743 16.4398 15.0825 16.3326C15.1907 16.2255 15.2514 16.0801 15.2514 15.9286V6.21429H15.8284C15.9814 6.21429 16.1281 6.15408 16.2363 6.04692C16.3445 5.93975 16.4053 5.79441 16.4053 5.64286V2.21429C16.4053 2.06273 16.3445 1.91739 16.2363 1.81022C16.1281 1.70306 15.9814 1.64286 15.8284 1.64286ZM14.0976 15.3571H2.55874V6.21429H14.0976V15.3571ZM15.2514 5.07143H1.40486V2.78571H3.13568V3.35714C3.13568 3.5087 3.19647 3.65404 3.30466 3.7612C3.41286 3.86837 3.55961 3.92857 3.71262 3.92857C3.86564 3.92857 4.01238 3.86837 4.12058 3.7612C4.22878 3.65404 4.28956 3.5087 4.28956 3.35714V2.78571H12.3667V3.35714C12.3667 3.5087 12.4275 3.65404 12.5357 3.7612C12.6439 3.86837 12.7907 3.92857 12.9437 3.92857C13.0967 3.92857 13.2434 3.86837 13.3516 3.7612C13.4598 3.65404 13.5206 3.5087 13.5206 3.35714V2.78571H15.2514V5.07143Z" fill="#0070BA"/>
<path d="M7.17401 7.92859H4.86625C4.71323 7.92859 4.56649 7.98879 4.45829 8.09596C4.35009 8.20312 4.28931 8.34847 4.28931 8.50002C4.28931 8.65157 4.35009 8.79692 4.45829 8.90408C4.56649 9.01124 4.71323 9.07145 4.86625 9.07145H6.59707V10.2143H5.44319C5.29017 10.2143 5.14343 10.2745 5.03523 10.3817C4.92703 10.4888 4.86625 10.6342 4.86625 10.7857C4.86625 10.9373 4.92703 11.0826 5.03523 11.1898C5.14343 11.297 5.29017 11.3572 5.44319 11.3572H6.59707V12.5H4.86625C4.71323 12.5 4.56649 12.5602 4.45829 12.6674C4.35009 12.7745 4.28931 12.9199 4.28931 13.0714C4.28931 13.223 4.35009 13.3683 4.45829 13.4755C4.56649 13.5827 4.71323 13.6429 4.86625 13.6429H7.17401C7.32702 13.6429 7.47377 13.5827 7.58197 13.4755C7.69017 13.3683 7.75095 13.223 7.75095 13.0714V8.50002C7.75095 8.34847 7.69017 8.20312 7.58197 8.09596C7.47377 7.98879 7.32702 7.92859 7.17401 7.92859ZM9.48177 12.5C9.32876 12.5 9.18201 12.5602 9.07381 12.6674C8.96562 12.7745 8.90483 12.9199 8.90483 13.0714C8.90483 13.223 8.96562 13.3683 9.07381 13.4755C9.18201 13.5827 9.32876 13.6429 9.48177 13.6429H11.7895C11.9426 13.6429 12.0893 13.5827 12.1975 13.4755C12.3057 13.3683 12.3665 13.223 12.3665 13.0714C12.3665 12.9199 12.3057 12.7745 12.1975 12.6674C12.0893 12.5602 11.9426 12.5 11.7895 12.5H11.2126V8.50002C11.2123 8.40261 11.1869 8.30689 11.1387 8.22196C11.0906 8.13703 11.0213 8.0657 10.9375 8.01474C10.8536 7.96378 10.7581 7.9349 10.6598 7.93082C10.5615 7.92674 10.4639 7.94761 10.376 7.99145L9.22215 8.56287C9.09733 8.63726 9.00554 8.75567 8.96521 8.89431C8.92489 9.03296 8.93901 9.18158 9.00474 9.31034C9.07047 9.4391 9.18295 9.53847 9.31959 9.58849C9.45623 9.63851 9.60692 9.63548 9.7414 9.58002L10.0587 9.42573V12.5H9.48177Z" fill="#0070BA"/>
</svg>
