<svg width="25" height="27" viewBox="0 0 25 27" fill="none" xmlns="http://www.w3.org/2000/svg">
<path d="M20.7877 9.43994H18.0953C17.7382 9.43994 17.3958 9.58042 17.1434 9.83047C16.8909 10.0805 16.7491 10.4197 16.7491 10.7733C16.7491 11.1269 16.8909 11.466 17.1434 11.7161C17.3958 11.9661 17.7382 12.1066 18.0953 12.1066H20.7877C21.1447 12.1066 21.4871 12.2471 21.7396 12.4971C21.992 12.7472 22.1338 13.0863 22.1338 13.4399L22.1338 22.7733C22.1338 23.1269 21.992 23.466 21.7396 23.7161C21.4871 23.9661 21.1447 24.1066 20.7877 24.1066L4.63331 24.1066C4.27628 24.1066 3.93387 23.9661 3.68141 23.7161C3.42895 23.466 3.28712 23.1269 3.28712 22.7733L3.28712 13.4399C3.28712 13.0863 3.42895 12.7472 3.68141 12.4971C3.93387 12.2471 4.27628 12.1066 4.63331 12.1066H7.3257C7.68273 12.1066 8.02514 11.9661 8.2776 11.7161C8.53007 11.466 8.6719 11.1269 8.6719 10.7733C8.6719 10.4197 8.53007 10.0805 8.2776 9.83047C8.02514 9.58042 7.68273 9.43994 7.3257 9.43994L4.63331 9.43994C3.56221 9.43994 2.53498 9.86137 1.7776 10.6115C1.02022 11.3617 0.594727 12.3791 0.594727 13.4399L0.594727 22.7733C0.594727 23.8341 1.02022 24.8516 1.7776 25.6017C2.53498 26.3519 3.56221 26.7733 4.63331 26.7733L20.7877 26.7733C21.8587 26.7733 22.886 26.3519 23.6434 25.6017C24.4007 24.8516 24.8262 23.8341 24.8262 22.7733L24.8262 13.4399C24.8262 12.3791 24.4007 11.3617 23.6434 10.6115C22.886 9.86137 21.8587 9.43994 20.7877 9.43994Z" fill="white"/>
<path d="M15.3705 15.0533L13.6339 16.7867L13.6339 1.33333C13.6339 0.979707 13.4921 0.640569 13.2396 0.39052C12.9871 0.140472 12.6447 -4.25051e-06 12.2877 -4.28143e-06C11.9307 -4.31234e-06 11.5882 0.140472 11.3358 0.39052C11.0833 0.640569 10.9415 0.979707 10.9415 1.33333L10.9415 16.7867L9.2049 15.0533C9.07976 14.9284 8.93087 14.8292 8.76682 14.7615C8.60277 14.6938 8.42682 14.6589 8.2491 14.6589C8.07139 14.6589 7.89544 14.6938 7.73139 14.7615C7.56734 14.8292 7.41845 14.9284 7.29331 15.0533C7.16713 15.1773 7.06698 15.3247 6.99864 15.4872C6.93029 15.6497 6.8951 15.824 6.8951 16C6.8951 16.176 6.93029 16.3503 6.99864 16.5128C7.06698 16.6752 7.16713 16.8227 7.29331 16.9467L11.3319 20.9467C11.457 21.0716 11.6059 21.1708 11.77 21.2385C11.934 21.3062 12.11 21.3411 12.2877 21.3411C12.4654 21.3411 12.6414 21.3062 12.8054 21.2385C12.9695 21.1708 13.1183 21.0716 13.2435 20.9467L17.2821 16.9467C17.5356 16.6956 17.678 16.3551 17.678 16C17.678 15.6449 17.5356 15.3044 17.2821 15.0533C17.0286 14.8023 16.6848 14.6612 16.3263 14.6612C15.9678 14.6612 15.624 14.8023 15.3705 15.0533Z" fill="white"/>
</svg>
