<svg width="26" height="27" viewBox="0 0 26 27" fill="none" xmlns="http://www.w3.org/2000/svg">
<g clip-path="url(#clip0)" filter="url(#filter0_d)">
<path d="M4.05925 4.31828C4.10863 3.76709 4.3185 3.30709 4.71354 2.90924L6.24434 1.36759C6.48301 1.13552 6.74637 1.01533 7.0015 1.01533C7.25252 1.01533 7.50765 1.13552 7.74221 1.37588C8.01792 1.63282 8.27716 1.9022 8.55699 2.18815C8.6969 2.3332 8.84092 2.47824 8.98495 2.62743L10.2112 3.86241C10.4664 4.11935 10.598 4.38044 10.598 4.63738C10.598 4.89432 10.4664 5.15541 10.2112 5.41235C10.0837 5.54082 9.9561 5.67344 9.82853 5.80191C9.44583 6.19146 9.08783 6.5603 8.69278 6.91256L8.67221 6.93328C8.33066 7.27725 8.38415 7.60464 8.46646 7.85329C8.47057 7.86573 8.47469 7.87402 8.4788 7.88645C8.79566 8.65313 9.23597 9.38251 9.92318 10.2528C11.1577 11.7862 12.458 12.9755 13.8901 13.8914C14.067 14.0075 14.2563 14.0986 14.4333 14.1898C14.5979 14.2727 14.7501 14.3514 14.8859 14.4385C14.9024 14.4467 14.9147 14.455 14.9312 14.4633C15.067 14.5338 15.1987 14.5669 15.3303 14.5669C15.6595 14.5669 15.8735 14.3556 15.9435 14.2851L17.4825 12.7352C17.7212 12.4948 17.9804 12.3663 18.2355 12.3663C18.5483 12.3663 18.8034 12.5611 18.9639 12.7352L21.4453 15.23C21.9391 15.7273 21.935 16.2661 21.4329 16.7924C21.2601 16.9789 21.079 17.1571 20.8856 17.3436C20.5976 17.6254 20.2972 17.9155 20.0256 18.2429C19.5524 18.7567 18.9886 18.9971 18.2602 18.9971C18.1903 18.9971 18.1162 18.993 18.0463 18.9888C16.6965 18.9018 15.4414 18.3713 14.4991 17.9196C11.9395 16.6722 9.69274 14.9026 7.82862 12.6564C6.29372 10.7957 5.26084 9.06341 4.57775 7.2068C4.1539 6.06714 3.99341 5.15126 4.05925 4.31828Z" fill="white"/>
</g>
<defs>
<filter id="filter0_d" x="-1" y="0" width="27.8592" height="28" filterUnits="userSpaceOnUse" color-interpolation-filters="sRGB">
<feFlood flood-opacity="0" result="BackgroundImageFix"/>
<feColorMatrix in="SourceAlpha" type="matrix" values="0 0 0 0 0 0 0 0 0 0 0 0 0 0 0 0 0 0 127 0"/>
<feOffset dy="4"/>
<feGaussianBlur stdDeviation="2"/>
<feColorMatrix type="matrix" values="0 0 0 0 0 0 0 0 0 0 0 0 0 0 0 0 0 0 0.25 0"/>
<feBlend mode="normal" in2="BackgroundImageFix" result="effect1_dropShadow"/>
<feBlend mode="normal" in="SourceGraphic" in2="effect1_dropShadow" result="shape"/>
</filter>
<clipPath id="clip0">
<rect width="19.8592" height="20" fill="white" transform="translate(3)"/>
</clipPath>
</defs>
</svg>
